<svg width="32" height="32" viewBox="0 0 17 16" xmlns="http://www.w3.org/2000/svg">
	<path fill-rule="evenodd" clip-rule="evenodd"
		d="M8.08797 0.407996C8.24308 0.683228 8.22205 1.0239 8.03426 1.27796C7.34958 2.20426 7.0201 3.34553 7.10576 4.49421C7.19142 5.6429 7.68653 6.72268 8.50102 7.53718C9.31552 8.35167 10.3953 8.84677 11.544 8.93244C12.6927 9.0181 13.8339 8.68862 14.7602 8.00394C15.0036 7.82407 15.3275 7.79658 15.5977 7.93287C15.8678 8.06915 16.0382 8.34598 16.0382 8.64859L16.0382 8.81691C16.0382 8.84151 16.0371 8.86609 16.0348 8.89058C15.8923 10.4322 15.3087 11.705 14.3946 12.8874C13.4633 14.0918 12.2084 15.0061 10.7765 15.5233C9.34463 16.0405 7.79506 16.1392 6.30913 15.8079C4.8232 15.4765 3.46235 14.7289 2.38584 13.6524C1.30932 12.5758 0.561656 11.215 0.230329 9.72907C-0.100999 8.24314 -0.00228578 6.69357 0.514918 5.2617C1.03212 3.82982 1.94643 2.57485 3.15084 1.64364C4.35526 0.712432 5.79997 0.143493 7.31594 0.00339903C7.63053 -0.0256732 7.93285 0.132765 8.08797 0.407996ZM5.87191 1.95498C5.24863 2.18049 4.66096 2.50239 4.13138 2.91185C3.16784 3.65682 2.4364 4.66079 2.02264 5.8063C1.60887 6.9518 1.5299 8.19145 1.79497 9.38019C2.06003 10.5689 2.65816 11.6576 3.51937 12.5188C4.38059 13.38 5.46926 13.9782 6.65801 14.2432C7.84675 14.5083 9.0864 14.4293 10.2319 14.0156C11.3774 13.6018 12.3814 12.8704 13.1264 11.9068C13.5679 11.3357 13.9015 10.7627 14.1253 10.1509C13.2693 10.4674 12.3488 10.6 11.4248 10.5311C9.8932 10.4168 8.45349 9.75671 7.36749 8.67071C6.28149 7.58471 5.62136 6.145 5.50714 4.61343C5.43936 3.70452 5.56652 2.79909 5.87191 1.95498Z"
		fill="#27272A" />
</svg>